# Blender v2.74 (sub 0) OBJ File: 'Lobby.blend'
# www.blender.org
mtllib RoomElevator.mtl
o Elevator5
v -38.468410 0.076286 -28.622211
v -42.981339 0.076286 -28.622217
v -42.981342 0.076286 -24.977018
v -38.468410 0.076286 -24.977009
v -38.468410 3.081764 -28.622211
v -42.981339 3.081764 -28.622217
v -42.981342 3.081763 -24.977018
v -38.468410 3.081763 -24.977011
v -38.468410 3.809710 -28.622211
v -42.981339 3.809710 -28.622217
v -42.981342 3.809710 -24.977022
v -38.468410 3.809710 -24.977011
v -42.981339 4.181945 -28.622217
v -42.981342 4.181945 -24.977018
v -38.468410 0.076285 -21.074293
v -42.981342 0.076285 -21.074305
v -42.981342 0.076285 -17.737770
v -38.468410 0.076285 -17.737762
v -38.468410 3.081762 -21.074295
v -42.981342 3.081762 -21.074306
v -42.981342 3.081762 -17.737772
v -38.468410 3.081762 -17.737762
v -38.468410 3.809709 -21.074299
v -42.981342 3.809709 -21.074306
v -42.981342 3.809708 -17.737772
v -38.468410 3.809708 -17.737764
v -42.981342 4.212882 -21.074305
v -42.981342 4.212882 -17.737770
v -38.468410 0.076286 -24.736277
v -42.981342 0.076286 -24.736286
v -42.981342 0.076285 -21.269087
v -38.468410 0.076285 -21.269077
v -38.468410 3.081763 -24.736277
v -42.981342 3.081763 -24.736288
v -42.981342 3.081763 -21.269087
v -38.468410 3.081763 -21.269079
v -38.468410 3.809710 -24.736280
v -42.981342 3.809710 -24.736292
v -42.981342 3.809709 -21.269089
v -38.468410 3.809709 -21.269079
v -42.981342 4.168618 -24.736286
v -42.981342 4.168618 -21.269087
v -38.468410 0.076285 -17.461958
v -42.981342 0.076285 -17.461969
v -42.981342 0.076284 -14.001503
v -38.468407 0.076284 -14.001493
v -38.468410 3.081762 -17.461960
v -42.981342 3.081762 -17.461969
v -42.981342 3.081761 -14.001502
v -38.468407 3.081761 -14.001493
v -38.468410 3.809708 -17.461960
v -42.981342 3.809708 -17.461971
v -42.981342 3.809708 -14.001502
v -38.468407 3.809708 -14.001493
v -42.981342 4.276046 -17.461969
v -42.981342 4.276046 -14.001502
v -38.468410 0.076287 -32.667492
v -42.981339 0.076287 -32.667492
v -42.981342 0.076286 -28.824556
v -38.468410 0.076286 -28.824551
v -38.468410 3.081764 -32.667492
v -42.981339 3.081764 -32.667492
v -42.981342 3.081764 -28.824556
v -38.468410 3.081764 -28.824551
v -38.468410 3.809711 -32.667492
v -42.981339 3.809711 -32.667492
v -42.981342 3.809710 -28.824556
v -38.468410 3.809710 -28.824551
v -42.981339 4.156396 -32.667492
v -42.981342 4.156395 -28.824556
vt 0.807923 0.500000
vt 0.807923 0.750000
vt 0.610996 0.750000
vt 0.610996 0.500000
vt 0.610996 0.250000
vt 0.773363 0.250000
vt 0.773363 0.500000
vt 0.448629 0.750000
vt 0.448629 0.500000
vt 0.812689 0.250000
vt 0.812689 0.500000
vt 0.409303 0.750000
vt 0.409303 0.500000
vt 0.791248 0.750000
vt 0.988175 0.750000
vt 0.988175 0.977438
vt 0.791248 0.977438
vt 0.610996 1.000000
vt 0.791248 1.000000
vt 0.409303 0.250000
vt 0.571670 0.250000
vt 0.571670 0.500000
vt 0.201693 0.500000
vt 0.201693 0.750000
vt 0.039326 0.750000
vt 0.039326 0.500000
vt 0.000000 0.750000
vt 0.000000 0.500000
vt 0.992941 0.479152
vt 0.812690 0.479152
vt 0.992941 0.250000
vt 0.394920 0.750000
vt 0.394920 1.000000
vt 0.207609 1.000000
vt 0.207609 0.750000
vt 0.207610 0.500000
vt 0.207610 0.250000
vt 0.369977 0.250000
vt 0.369977 0.500000
vt 0.000000 0.250000
vt 0.162367 0.250000
vt 0.162367 0.500000
vt 0.201693 0.250000
vt 0.812689 0.000000
vt 1.000000 0.000000
vt 1.000000 0.226700
vt 0.812689 0.226700
vt 0.581867 0.750000
vt 0.581867 1.000000
vt 0.409303 0.000000
vt 0.571670 0.000000
vt 0.207610 0.000000
vt 0.369977 0.000000
vt 0.610996 0.000000
vt 0.994870 0.500000
vt 0.994870 0.732651
vt 0.807923 0.732651
vt 0.000000 0.000000
vt 0.773363 0.000000
vt 0.369977 0.750000
vt 0.207609 0.976023
vt 0.000000 0.976023
vn -0.000000 1.000000 0.000000
vn -0.000000 0.000000 1.000000
vn 0.000000 -0.000000 -1.000000
vn 1.000000 0.000000 0.000000
usemtl ElevatorMat
s off
f 1/1/1 2/2/1 3/3/1 4/4/1
f 2/4/2 1/5/2 5/6/2 6/7/2
f 4/4/3 3/3/3 7/8/3 8/9/3
f 6/7/2 5/6/2 9/10/2 10/11/2
f 8/9/3 7/8/3 11/12/3 12/13/3
f 3/14/4 2/15/4 13/16/4 14/17/4
f 15/18/1 16/3/1 17/14/1 18/19/1
f 16/13/2 15/20/2 19/21/2 20/22/2
f 18/23/3 17/24/3 21/25/3 22/26/3
f 20/22/2 19/21/2 23/5/2 24/4/2
f 22/26/3 21/25/3 25/27/3 26/28/3
f 17/29/4 16/30/4 27/10/4 28/31/4
f 29/32/1 30/33/1 31/34/1 32/35/1
f 30/36/2 29/37/2 33/38/2 34/39/2
f 32/28/3 31/40/3 35/41/3 36/42/3
f 34/39/2 33/38/2 37/20/2 38/13/2
f 36/42/3 35/41/3 39/43/3 40/23/3
f 31/44/4 30/45/4 41/46/4 42/47/4
f 43/48/1 44/49/1 45/33/1 46/32/1
f 44/20/2 43/50/2 47/51/2 48/21/2
f 46/37/3 45/52/3 49/53/3 50/38/3
f 48/21/2 47/51/2 51/54/2 52/5/2
f 50/38/3 49/53/3 53/50/3 54/20/3
f 45/1/4 44/55/4 55/56/4 56/57/4
f 57/40/1 58/58/1 59/52/1 60/37/1
f 58/5/2 57/54/2 61/59/2 62/6/2
f 60/35/3 59/36/3 63/39/3 64/60/3
f 62/6/2 61/59/2 65/44/2 66/10/2
f 64/60/3 63/39/3 67/13/3 68/12/3
f 59/27/4 58/35/4 69/61/4 70/62/4
