# Blender v2.74 (sub 0) OBJ File: 'Lobby.blend'
# www.blender.org
mtllib room02.mtl
o Staircase1
v 13.351269 3.143946 -0.022571
v 13.351269 3.143947 -2.226109
v 13.439728 3.143947 -2.226109
v 13.439728 3.143946 -0.022571
v 13.351269 0.076282 -2.226110
v 13.439728 0.076282 -2.226110
v 13.439728 0.076282 -2.169796
v 13.351269 0.076282 -0.022571
v 13.439728 0.076282 -0.022571
v 13.539131 3.143946 -0.022573
v 13.539131 3.143947 -2.226109
v 13.661297 3.143947 -2.226109
v 13.661297 3.143946 -0.022573
v 13.539131 0.076282 -2.226110
v 13.661297 0.076282 -2.226110
v 13.539131 0.076282 -2.165154
v 13.539131 0.076282 -0.022574
v 13.661297 0.076282 -0.022574
v 13.441578 3.086801 -2.185060
v 13.441578 3.086801 -0.063623
v 13.439728 0.076282 -0.069827
v 13.537277 3.086801 -0.063623
v 13.537277 3.086801 -2.185060
v 13.539131 0.076282 -0.071564
v 15.035774 0.076282 -0.022574
v 15.035774 0.076282 -2.226112
v 19.107990 0.076282 -0.022574
v 19.107990 0.076282 -2.226112
v 22.771202 0.076282 -0.022574
v 22.771202 0.076282 -2.226110
v 15.035774 0.076283 -4.492955
v 13.661293 0.076283 -4.492955
v 19.107990 0.076283 -4.492955
v 22.771194 0.076283 -4.492955
v 13.661297 0.076282 1.350538
v 15.035774 0.076282 1.350535
v 19.107990 0.076282 1.350538
v 22.771202 0.076282 1.350538
v 22.771202 3.151019 -0.022573
v 22.771202 3.151019 -2.226109
v 13.661285 3.151019 -4.492954
v 22.771187 3.151019 -4.492954
v 15.035767 3.151019 -4.492954
v 19.107986 3.151019 -4.492957
v 13.661297 3.151018 1.350536
v 22.771202 3.151018 1.350536
v 15.035774 3.151018 1.350536
v 19.107990 3.151018 1.350538
v 13.661297 3.719824 -2.226109
v 13.661297 3.719823 -0.022573
v 22.771202 3.726895 -0.022573
v 22.771202 3.726896 -2.226109
v 13.661282 3.726896 -4.492954
v 22.771187 3.726896 -4.492954
v 15.035763 3.726896 -4.492954
v 19.107979 3.726896 -4.492957
v 13.661297 3.726895 1.350536
v 22.771202 3.726895 1.350536
v 15.035774 3.726895 1.350536
v 19.107990 3.726895 1.350538
vt 0.310470 0.692620
vt 0.310976 0.673264
vt 0.311935 0.673274
vt 0.311289 0.692624
vt 0.310888 0.643105
vt 0.312043 0.643110
vt 0.739842 0.829901
vt 0.740707 0.829350
vt 0.740707 0.829901
vt 0.310568 0.722844
vt 0.311440 0.722842
vt 0.313228 0.692706
vt 0.313874 0.673358
vt 0.315005 0.673360
vt 0.314549 0.692718
vt 0.313705 0.643109
vt 0.314910 0.643105
vt 0.741680 0.829901
vt 0.741680 0.829305
vt 0.742876 0.829901
vt 0.313009 0.722845
vt 0.314599 0.722857
vt 0.312411 0.673089
vt 0.311904 0.692886
vt 0.312479 0.643110
vt 0.311847 0.722842
vt 0.312751 0.692890
vt 0.313258 0.673096
vt 0.313234 0.643109
vt 0.312601 0.722843
vt 0.739842 0.808340
vt 0.740707 0.808340
vt 0.740707 0.808802
vt 0.741680 0.808819
vt 0.741680 0.808340
vt 0.742875 0.808340
vt 0.756325 0.808340
vt 0.756325 0.829901
vt 0.796171 0.808340
vt 0.796171 0.829901
vt 0.832016 0.808340
vt 0.832016 0.829901
vt 0.756325 0.852082
vt 0.742876 0.852082
vt 0.796171 0.852082
vt 0.832016 0.852082
vt 0.742875 0.794904
vt 0.756325 0.794904
vt 0.796171 0.794904
vt 0.832016 0.794904
vt 0.172250 0.953929
vt 0.193812 0.953929
vt 0.193812 0.984015
vt 0.172250 0.984016
vt 0.185066 0.916452
vt 0.207248 0.916452
vt 0.207248 0.946538
vt 0.185066 0.946469
vt 0.150069 0.953929
vt 0.150069 0.984016
vt 0.210825 0.932932
vt 0.224274 0.932932
vt 0.224274 0.963019
vt 0.210825 0.963019
vt 0.264121 0.932932
vt 0.264121 0.963019
vt 0.299965 0.932932
vt 0.299965 0.963019
vt 0.150069 0.916452
vt 0.163505 0.916452
vt 0.163505 0.946469
vt 0.150069 0.946538
vt 0.207248 0.953929
vt 0.207247 0.984015
vt 0.675546 0.939966
vt 0.688995 0.939966
vt 0.688995 0.970053
vt 0.675546 0.970053
vt 0.635699 0.939966
vt 0.635700 0.970053
vt 0.599855 0.939966
vt 0.599855 0.970053
vt 0.185066 0.952104
vt 0.163505 0.952104
vt 0.193812 0.989650
vt 0.172250 0.989650
vt 0.207248 0.952173
vt 0.150069 0.989650
vt 0.224274 0.968654
vt 0.210825 0.968654
vt 0.264121 0.968654
vt 0.299965 0.968653
vt 0.150069 0.952173
vt 0.207247 0.989650
vt 0.688995 0.975688
vt 0.675546 0.975688
vt 0.635700 0.975688
vt 0.599855 0.975688
vn 0.000000 -1.000000 -0.000000
vn 0.000000 -0.000000 1.000000
vn 0.000000 1.000000 0.000000
vn 0.000000 0.000000 -1.000000
vn -0.999500 -0.032400 -0.000000
vn -0.999800 0.000400 0.019200
vn -0.999800 0.000300 -0.021200
vn 0.999500 -0.032400 -0.000000
vn 0.999800 0.000400 0.018400
vn 0.999800 0.000300 -0.020800
vn -0.023800 0.005800 0.999700
vn -0.008900 0.002300 -1.000000
vn -1.000000 0.000000 0.000000
vn 1.000000 0.000000 -0.000000
usemtl Material.002
s off
f 1/1/1 2/2/1 3/3/1 4/4/1
f 2/2/2 5/5/2 6/6/2 3/3/2
f 5/7/3 7/8/3 6/9/3
f 8/10/4 1/1/4 4/4/4 9/11/4
f 10/12/1 11/13/1 12/14/1 13/15/1
f 11/13/2 14/16/2 15/17/2 12/14/2
f 14/18/3 16/19/3 15/20/3
f 17/21/4 10/12/4 13/15/4 18/22/4
f 4/4/5 3/3/5 19/23/5 20/24/5
f 3/3/6 6/6/6 7/25/6 19/23/6
f 9/11/7 4/4/7 20/24/7 21/26/7
f 11/13/8 10/12/8 22/27/8 23/28/8
f 14/16/9 11/13/9 23/28/9 16/29/9
f 10/12/10 17/21/10 24/30/10 22/27/10
f 8/31/3 9/32/3 21/33/3
f 24/34/3 17/35/3 18/36/3
f 16/19/3 24/34/3 18/36/3 15/20/3
f 16/19/3 7/8/3 21/33/3 24/34/3
f 7/8/3 5/7/3 8/31/3 21/33/3
f 16/29/11 23/28/11 19/23/11 7/25/11
f 21/26/12 20/24/12 22/27/12 24/30/12
f 19/23/1 23/28/1 22/27/1 20/24/1
f 15/20/3 18/36/3 25/37/3 26/38/3
f 26/38/3 25/37/3 27/39/3 28/40/3
f 28/40/3 27/39/3 29/41/3 30/42/3
f 15/20/3 26/38/3 31/43/3 32/44/3
f 26/38/3 28/40/3 33/45/3 31/43/3
f 28/40/3 30/42/3 34/46/3 33/45/3
f 25/37/3 18/36/3 35/47/3 36/48/3
f 27/39/3 25/37/3 36/48/3 37/49/3
f 29/41/3 27/39/3 37/49/3 38/50/3
f 30/51/13 29/52/13 39/53/13 40/54/13
f 15/55/14 32/56/14 41/57/14 12/58/14
f 34/59/13 30/51/13 40/54/13 42/60/13
f 32/61/2 31/62/2 43/63/2 41/64/2
f 31/62/2 33/65/2 44/66/2 43/63/2
f 33/65/2 34/67/2 42/68/2 44/66/2
f 35/69/14 18/70/14 13/71/14 45/72/14
f 29/52/13 38/73/13 46/74/13 39/53/13
f 36/75/4 35/76/4 45/77/4 47/78/4
f 37/79/4 36/75/4 47/78/4 48/80/4
f 38/81/4 37/79/4 48/80/4 46/82/4
f 13/71/14 12/58/14 49/83/14 50/84/14
f 40/54/13 39/53/13 51/85/13 52/86/13
f 12/58/14 41/57/14 53/87/14 49/83/14
f 42/60/13 40/54/13 52/86/13 54/88/13
f 41/64/2 43/63/2 55/89/2 53/90/2
f 43/63/2 44/66/2 56/91/2 55/89/2
f 44/66/2 42/68/2 54/92/2 56/91/2
f 45/72/14 13/71/14 50/84/14 57/93/14
f 39/53/13 46/74/13 58/94/13 51/85/13
f 47/78/4 45/77/4 57/95/4 59/96/4
f 48/80/4 47/78/4 59/96/4 60/97/4
f 46/82/4 48/80/4 60/97/4 58/98/4
